# xmcd
#
# Track frame offsets:
# 150
# 9491
# 22419
# 34219
# 47548
# 56875
# 68099
# 77758
# 87475
# 99319
# 110965
# 123623
# 135397
# 146688
# 157237
# 171228
# 183087
# 192854
# 204163
# 214643
#
# Disc length: 3001 seconds
#
#
# Revision: 0
# Processed by: cddbd v1.5.2PL0 Copyright (c) Steve Scherf et al.
# Submitted via: FreeRIP 2.21 
#
DISCID=220bb714
DTITLE=60 Jahre Club - PopArchiv - D
DYEAR=1959
DGENRE=Oldies
TTITLE0=Elvis Presley and The Jordanaires - I Need Your Love Tonight
TTITLE1=Shirley Bassey - As I love You
TTITLE2=Cliff Richard and The Drifters - Living Doll
TTITLE3=Jane Morgan - The Day The Rains Came
TTITLE4=Buddy Holly - It doesn't Matter Anymore
TTITLE5=Boddy Darin - Dream Lover
TTITLE6=Jerry Keller- Here Comes Sixteen
TTITLE7=Craig Douglas - Only Sixteen
TTITLE8=Platters - Smoke gets in your eyes
TTITLE9=Cliff Richard - Travellin' Light
TTITLE10=Browns - The three bells
TTITLE11=Frankie Avalon - Why
TTITLE12=Jonny Horton - The battle of New Orleans
TTITLE13=Fleetwoods - Come softly to me
TTITLE14=Boddy Darin - Mack the knife
TTITLE15=Guy Mitchell - Heartaches by the number
TTITLE16=Elvis Presley and The Jordanaires - A big hunk o'love
TTITLE17=Paul Anka - Lonely Boy
TTITLE18=Frankie Avalon - Venus
TTITLE19=Lloyd Price - Stagger Lee
EXTD=
EXTT0=
EXTT1=
EXTT2=
EXTT3=
EXTT4=
EXTT5=
EXTT6=
EXTT7=
EXTT8=
EXTT9=
EXTT10=
EXTT11=
EXTT12=
EXTT13=
EXTT14=
EXTT15=
EXTT16=
EXTT17=
EXTT18=
EXTT19=
PLAYORDER=
